<?xml version="1.0" encoding="UTF-8" standalone="no"?>
<svg
   width="785.41998"
   height="131.31001"
   viewBox="0 0 785.41998 131.31001"
   fill="none"
   version="1.1"
   id="svg15"
   sodipodi:docname="logo_white.svg"
   inkscape:version="1.3.2 (091e20e, 2023-11-25)"
   xmlns:inkscape="http://www.inkscape.org/namespaces/inkscape"
   xmlns:sodipodi="http://sodipodi.sourceforge.net/DTD/sodipodi-0.dtd"
   xmlns="http://www.w3.org/2000/svg"
   xmlns:svg="http://www.w3.org/2000/svg">
  <defs
     id="defs15" />
  <sodipodi:namedview
     id="namedview15"
     pagecolor="#505050"
     bordercolor="#eeeeee"
     borderopacity="1"
     inkscape:showpageshadow="0"
     inkscape:pageopacity="0"
     inkscape:pagecheckerboard="0"
     inkscape:deskcolor="#505050"
     inkscape:zoom="0.46351943"
     inkscape:cx="133.75923"
     inkscape:cy="86.296275"
     inkscape:window-width="1312"
     inkscape:window-height="449"
     inkscape:window-x="0"
     inkscape:window-y="44"
     inkscape:window-maximized="0"
     inkscape:current-layer="svg15" />
  <path
     d="m 62.64016,0 h -38.96 v 38.960024 h 38.96 z"
     fill="#ffac3e"
     id="path1" />
  <path
     d="m 140.54996,0 h -38.96 v 38.960024 h 38.96 z"
     fill="#ff4370"
     id="path2" />
  <path
     d="m 140.54996,77.91002 h -38.96 v 38.96 h 38.96 z"
     fill="#ffac3e"
     id="path3" />
  <g
     id="g15"
     style="fill:#ffffff;fill-opacity:1"
     transform="translate(25.70996,-0.349976)">
    <path
       d="M 249.15,96.22 228.77,54.55 208.39,96.22 h -11.9 L 169.12,40.3301 h 13.49 l 19.8,40.5199 19.85,-40.5199 h 13.01 l 19.85,40.5199 19.8,-40.5199 h 13.49 L 261.04,96.22 h -11.9 z"
       fill="white"
       id="path4"
       style="fill:#ffffff;fill-opacity:1" />
    <path
       d="m 318.01,96.22 c -10.6,0 -19.18,-8.58 -19.18,-19.18 V 59.5001 c 0,-10.6 8.58,-19.18 19.18,-19.18 h 35.12 c 10.55,0 19.18,8.58 19.18,19.18 V 77.04 c 0,10.6 -8.62,19.18 -19.18,19.18 z m 42.3,-19.17 V 59.5101 c 0,-4.05 -3.18,-7.18 -7.18,-7.18 h -35.12 c -4.05,0 -7.18,3.13 -7.18,7.18 V 77.05 c 0,4.05 3.13,7.18 7.18,7.18 h 35.12 c 4,0 7.18,-3.13 7.18,-7.18 z"
       fill="white"
       id="path5"
       style="fill:#ffffff;fill-opacity:1" />
    <path
       d="M 385.68,96.22 V 40.3301 h 12 V 43.36 c 2.31,-2.55 4.72,-3.0299 7.18,-3.0299 h 15.56 v 12 h -15.56 c -4.05,0 -7.18,3.13 -7.18,7.18 V 96.22 Z"
       fill="white"
       id="path6"
       style="fill:#ffffff;fill-opacity:1" />
    <path
       d="M 493.1,96.22 V 21.3401 h 12 V 41.73 c 2.26,-0.91 4.72,-1.3999 7.18,-1.3999 h 32.91 c 10.6,0 19.18,8.58 19.18,19.18 V 77.05 c 0,10.6 -8.58,19.18 -19.18,19.18 H 493.11 Z M 552.36,77.05 V 59.5101 c 0,-4.05 -3.13,-7.18 -7.18,-7.18 h -32.91 c -4.05,0 -7.18,3.13 -7.18,7.13 V 84.23 h 40.09 c 4.05,0 7.18,-3.13 7.18,-7.18 z"
       fill="white"
       id="path7"
       style="fill:#ffffff;fill-opacity:1" />
    <path
       d="M 577.73,96.22 V 21.3401 h 12 V 96.22 Z"
       fill="white"
       id="path8"
       style="fill:#ffffff;fill-opacity:1" />
    <path
       d="m 619.32,96.22 c -10.6,0 -19.18,-8.58 -19.18,-19.18 V 59.5001 c 0,-10.6 8.58,-19.18 19.18,-19.18 h 35.12 c 10.55,0 19.18,8.58 19.18,19.18 V 77.04 c 0,10.6 -8.62,19.18 -19.18,19.18 z m 42.3,-19.17 V 59.5101 c 0,-4.05 -3.18,-7.18 -7.18,-7.18 h -35.12 c -4.05,0 -7.18,3.13 -7.18,7.18 V 77.05 c 0,4.05 3.13,7.18 7.18,7.18 h 35.12 c 4,0 7.18,-3.13 7.18,-7.18 z"
       fill="white"
       id="path9"
       style="fill:#ffffff;fill-opacity:1" />
    <path
       d="M 743.33,96.22 720.4,75.6501 697.52,96.22 h -16.43 l 31.12,-27.9399 -31.12,-27.94 h 16.43 L 720.4,60.91 743.33,40.3401 h 16.38 l -31.13,27.94 31.13,27.9399 z"
       fill="white"
       id="path10"
       style="fill:#ffffff;fill-opacity:1" />
    <path
       d="m 485.64,40.33 h -16.96 l -21.97,21.93 h -3.88 V 27.13 h -12 v 69.09 h 12 V 74.25 h 3.88 l 21.97,21.97 h 16.96 L 457.7,68.28 Z"
       fill="white"
       id="path11"
       style="fill:#ffffff;fill-opacity:1" />
  </g>
  <path
     d="M 101.59996,38.950024 H 62.64016 V 77.91012 h 38.9598 z"
     fill="#1dd4ff"
     id="path12" />
  <path
     d="m 61.00996,83.95002 h -25.4899 v 23.68 h 25.4899 z"
     fill="#ff4370"
     id="path13" />
  <path
     d="m 35.51986,107.63002 h -23.68 v 23.68 h 23.68 z"
     fill="#1dd4ff"
     id="path14" />
  <path
     d="M 23.67996,38.950024 H 0 v 23.68 h 23.67996 z"
     fill="#1dd4ff"
     id="path15" />
</svg>
