<?xml version="1.0" encoding="UTF-8" standalone="no"?>
<!-- Created with Inkscape (http://www.inkscape.org/) -->

<svg
   width="207.80904mm"
   height="34.742443mm"
   version="1.1"
   viewBox="0 0 207.80904 34.742444"
   id="svg14"
   sodipodi:docname="logo_all_white.svg"
   inkscape:version="1.3.2 (091e20e, 2023-11-25)"
   xmlns:inkscape="http://www.inkscape.org/namespaces/inkscape"
   xmlns:sodipodi="http://sodipodi.sourceforge.net/DTD/sodipodi-0.dtd"
   xmlns="http://www.w3.org/2000/svg"
   xmlns:svg="http://www.w3.org/2000/svg">
  <defs
     id="defs14" />
  <sodipodi:namedview
     id="namedview14"
     pagecolor="#505050"
     bordercolor="#eeeeee"
     borderopacity="1"
     inkscape:showpageshadow="0"
     inkscape:pageopacity="0"
     inkscape:pagecheckerboard="0"
     inkscape:deskcolor="#505050"
     inkscape:document-units="mm"
     inkscape:zoom="0.62535757"
     inkscape:cx="284.63716"
     inkscape:cy="38.378044"
     inkscape:window-width="1312"
     inkscape:window-height="449"
     inkscape:window-x="0"
     inkscape:window-y="44"
     inkscape:window-maximized="0"
     inkscape:current-layer="svg14" />
  <path
     d="M 16.573542,0 H 6.265376 v 10.308173 h 10.308166 z"
     fill="#ffac3e"
     id="path1"
     style="fill:#ffffff;stroke-width:0.264583" />
  <path
     d="M 37.187176,0 H 26.87901 v 10.308173 h 10.308166 z"
     fill="#ff4370"
     id="path2"
     style="fill:#ffffff;stroke-width:0.264583" />
  <path
     d="M 37.187176,20.613693 H 26.87901 v 10.308166 h 10.308166 z"
     fill="#ffac3e"
     id="path3"
     style="fill:#ffffff;stroke-width:0.264583" />
  <g
     id="g15"
     style="fill:#ffffff;fill-opacity:1"
     transform="matrix(0.26458333,0,0,0.26458333,6.802427,-0.0925978)">
    <path
       d="M 249.15,96.22 228.77,54.55 208.39,96.22 h -11.9 L 169.12,40.3301 h 13.49 l 19.8,40.5199 19.85,-40.5199 h 13.01 l 19.85,40.5199 19.8,-40.5199 h 13.49 L 261.04,96.22 h -11.9 z"
       fill="white"
       id="path4"
       style="fill:#ffffff;fill-opacity:1" />
    <path
       d="m 318.01,96.22 c -10.6,0 -19.18,-8.58 -19.18,-19.18 V 59.5001 c 0,-10.6 8.58,-19.18 19.18,-19.18 h 35.12 c 10.55,0 19.18,8.58 19.18,19.18 V 77.04 c 0,10.6 -8.62,19.18 -19.18,19.18 z m 42.3,-19.17 V 59.5101 c 0,-4.05 -3.18,-7.18 -7.18,-7.18 h -35.12 c -4.05,0 -7.18,3.13 -7.18,7.18 V 77.05 c 0,4.05 3.13,7.18 7.18,7.18 h 35.12 c 4,0 7.18,-3.13 7.18,-7.18 z"
       fill="white"
       id="path5"
       style="fill:#ffffff;fill-opacity:1" />
    <path
       d="M 385.68,96.22 V 40.3301 h 12 V 43.36 c 2.31,-2.55 4.72,-3.0299 7.18,-3.0299 h 15.56 v 12 h -15.56 c -4.05,0 -7.18,3.13 -7.18,7.18 V 96.22 Z"
       fill="white"
       id="path6"
       style="fill:#ffffff;fill-opacity:1" />
    <path
       d="M 493.1,96.22 V 21.3401 h 12 V 41.73 c 2.26,-0.91 4.72,-1.3999 7.18,-1.3999 h 32.91 c 10.6,0 19.18,8.58 19.18,19.18 V 77.05 c 0,10.6 -8.58,19.18 -19.18,19.18 H 493.11 Z M 552.36,77.05 V 59.5101 c 0,-4.05 -3.13,-7.18 -7.18,-7.18 h -32.91 c -4.05,0 -7.18,3.13 -7.18,7.13 V 84.23 h 40.09 c 4.05,0 7.18,-3.13 7.18,-7.18 z"
       fill="white"
       id="path7"
       style="fill:#ffffff;fill-opacity:1" />
    <path
       d="M 577.73,96.22 V 21.3401 h 12 V 96.22 Z"
       fill="white"
       id="path8"
       style="fill:#ffffff;fill-opacity:1" />
    <path
       d="m 619.32,96.22 c -10.6,0 -19.18,-8.58 -19.18,-19.18 V 59.5001 c 0,-10.6 8.58,-19.18 19.18,-19.18 h 35.12 c 10.55,0 19.18,8.58 19.18,19.18 V 77.04 c 0,10.6 -8.62,19.18 -19.18,19.18 z m 42.3,-19.17 V 59.5101 c 0,-4.05 -3.18,-7.18 -7.18,-7.18 h -35.12 c -4.05,0 -7.18,3.13 -7.18,7.18 V 77.05 c 0,4.05 3.13,7.18 7.18,7.18 h 35.12 c 4,0 7.18,-3.13 7.18,-7.18 z"
       fill="white"
       id="path9"
       style="fill:#ffffff;fill-opacity:1" />
    <path
       d="M 743.33,96.22 720.4,75.6501 697.52,96.22 h -16.43 l 31.12,-27.9399 -31.12,-27.94 h 16.43 L 720.4,60.91 743.33,40.3401 h 16.38 l -31.13,27.94 31.13,27.9399 z"
       fill="white"
       id="path10"
       style="fill:#ffffff;fill-opacity:1" />
    <path
       d="m 485.64,40.33 h -16.96 l -21.97,21.93 h -3.88 V 27.13 h -12 v 69.09 h 12 V 74.25 h 3.88 l 21.97,21.97 h 16.96 L 457.7,68.28 Z"
       fill="white"
       id="path11"
       style="fill:#ffffff;fill-opacity:1" />
  </g>
  <path
     d="M 26.881656,10.305527 H 16.573542 V 20.61372 h 10.308114 z"
     fill="#1dd4ff"
     id="path12"
     style="fill:#ffffff;stroke-width:0.264583" />
  <path
     d="M 16.142219,22.211777 H 9.398016 v 6.265332 h 6.744203 z"
     fill="#ff4370"
     id="path13"
     style="fill:#ffffff;stroke-width:0.264583" />
  <path
     d="M 9.397963,28.477109 H 3.13263 v 6.265333 h 6.265333 z"
     fill="#1dd4ff"
     id="path14"
     style="fill:#ffffff;stroke-width:0.264583" />
  <path
     d="M 6.265323,10.305527 H 0 v 6.265333 h 6.265323 z"
     fill="#1dd4ff"
     id="path15"
     style="fill:#ffffff;stroke-width:0.264583" />
</svg>
